<svg width="21" height="21" viewBox="0 0 21 21" fill="none" xmlns="http://www.w3.org/2000/svg">
<path d="M10.6199 21C16.2197 21 20.7593 16.299 20.7593 10.5C20.7593 4.70101 16.2197 0 10.6199 0C5.02005 0 0.480469 4.70101 0.480469 10.5C0.480469 16.299 5.02005 21 10.6199 21Z" fill="#D0021B"/>
<path fill-rule="evenodd" clip-rule="evenodd" d="M14.4066 7.18231C14.8537 7.30844 15.2059 7.68009 15.3254 8.15199C15.5426 9.00734 15.5426 10.7919 15.5426 10.7919C15.5426 10.7919 15.5426 12.5766 15.3254 13.4319C15.2059 13.9038 14.8537 14.26 14.4066 14.3861C13.596 14.6153 10.346 14.6153 10.346 14.6153C10.346 14.6153 7.09598 14.6153 6.28546 14.3861C5.8383 14.26 5.48612 13.9038 5.36659 13.4319C5.14941 12.5766 5.14941 10.7919 5.14941 10.7919C5.14941 10.7919 5.14941 9.00734 5.36659 8.15199C5.48612 7.68009 5.8383 7.30846 6.28546 7.18231C7.09598 6.95312 10.346 6.95312 10.346 6.95312C10.346 6.95312 13.5961 6.95312 14.4066 7.18231ZM9.28278 9.17154V12.4121L11.9992 10.7919L9.28278 9.17154Z" fill="white"/>
<mask id="mask0_106_1038" style="mask-type:alpha" maskUnits="userSpaceOnUse" x="5" y="6" width="11" height="9">
<path fill-rule="evenodd" clip-rule="evenodd" d="M14.4066 7.18231C14.8537 7.30844 15.2059 7.68009 15.3254 8.15199C15.5426 9.00734 15.5426 10.7919 15.5426 10.7919C15.5426 10.7919 15.5426 12.5766 15.3254 13.4319C15.2059 13.9038 14.8537 14.26 14.4066 14.3861C13.596 14.6153 10.346 14.6153 10.346 14.6153C10.346 14.6153 7.09598 14.6153 6.28546 14.3861C5.8383 14.26 5.48612 13.9038 5.36659 13.4319C5.14941 12.5766 5.14941 10.7919 5.14941 10.7919C5.14941 10.7919 5.14941 9.00734 5.36659 8.15199C5.48612 7.68009 5.8383 7.30846 6.28546 7.18231C7.09598 6.95312 10.346 6.95312 10.346 6.95312C10.346 6.95312 13.5961 6.95312 14.4066 7.18231ZM9.28278 9.17154V12.4121L11.9992 10.7919L9.28278 9.17154Z" fill="white"/>
</mask>
<g mask="url(#mask0_106_1038)">
</g>
</svg>
