<?xml version="1.0" encoding="UTF-8" standalone="no" ?>
<!DOCTYPE svg PUBLIC "-//W3C//DTD SVG 1.1//EN" "http://www.w3.org/Graphics/SVG/1.1/DTD/svg11.dtd">
<svg xmlns="http://www.w3.org/2000/svg" xmlns:xlink="http://www.w3.org/1999/xlink" version="1.1" width="105.8005" height="72" viewBox="0 0 105.8005 72" xml:space="preserve">
<desc>Created with Fabric.js 4.6.0</desc>
<defs>
</defs>
<g transform="matrix(-1 0 0 -1 51.82 36)" id="Xd1I6sPHxmwOlXoAG5F8B"  >
<path style="stroke: none; stroke-width: 1; stroke-dasharray: none; stroke-linecap: butt; stroke-dashoffset: 0; stroke-linejoin: miter; stroke-miterlimit: 4; fill: rgb(0,0,0); fill-rule: nonzero; opacity: 1;" vector-effect="non-scaling-stroke"  transform=" translate(-52.9, -36)" d="M 10.8285 71.81596 C 6.02497 71.00853000000001 1.9048200000000008 67.42663 0.4555600000000002 62.80948000000001 L 0.000010000000000176534 61.36012000000001 L 0.000010000000000176534 35.997090000000014 L 0.000010000000000176534 10.634060000000016 L 0.4555600000000002 9.184700000000015 C 1.7185400000000002 5.209480000000015 5.0105900000000005 1.9174300000000155 9.11007 0.5509700000000155 L 10.55943 0.07474000000001552 L 51.9686 0.012610000000015519 C 80.14746 -0.028839999999984482 93.83322000000001 0.03328000000001552 94.78568 0.17821000000001552 C 97.74642 0.6337600000000155 99.96186 1.7518200000000155 102.05295 3.8222300000000153 C 103.54365999999999 5.333610000000015 104.47533999999999 6.824420000000016 105.24141999999999 8.915610000000015 L 105.80054999999999 10.426990000000014 L 105.80054999999999 35.89360000000001 L 105.80054999999999 61.36021000000001 L 105.34499999999998 62.80957000000001 C 103.83361999999998 67.55098000000001 99.81693999999999 71.00862000000001 94.90992999999999 71.79538000000001 C 93.31563999999999 72.06456000000001 12.339989999999986 72.06456000000001 10.828609999999983 71.81605 z M 86.31754 63.3684 C 86.21396 63.26482 78.65683999999999 58.37859 69.52610999999999 52.49846 L 52.92104999999999 41.79422 L 41.57497999999999 49.102940000000004 C 35.32218999999999 53.14029000000001 27.84786999999999 57.943720000000006 24.94924999999999 59.80718 C 22.050629999999988 61.670640000000006 19.58678999999999 63.26493 19.48331999999999 63.3684 C 19.35906999999999 63.4512 34.41128999999999 63.534 52.90048999999999 63.534 C 71.38968999999999 63.534 86.44191 63.4512 86.31765999999999 63.3684 z M 30.49787 44.54801 C 41.347139999999996 37.570589999999996 50.51923 31.71123 50.891980000000004 31.504179999999998 C 51.865010000000005 30.9865 54.01843 31.04863 55.07426 31.60776 C 55.529810000000005 31.83559 65.21948 38.02625 76.6071 45.35565 L 97.31163000000001 58.68933 L 97.37376 35.50019 C 97.41521 18.936490000000003 97.37376 12.062650000000005 97.20816 11.503620000000005 C 96.89753 10.447690000000005 95.46895 9.039880000000005 94.39234 8.708480000000005 C 93.19148 8.356500000000006 12.650500000000008 8.335730000000005 11.470420000000004 8.687810000000004 C 10.393810000000004 9.019110000000005 9.337780000000004 9.950790000000005 8.820300000000005 11.006620000000005 C 8.385420000000005 11.896850000000006 8.385420000000005 12.000430000000005 8.385420000000005 35.334500000000006 L 8.385420000000005 58.772040000000004 L 9.586280000000006 58.006060000000005 C 10.228210000000006 57.59196000000001 19.648700000000005 51.52544 30.497860000000006 44.54813000000001 z" stroke-linecap="round" />
</g>
</svg>